<mxfile host="app.diagrams.net" modified="2023-11-28T18:59:41.975Z" agent="Mozilla/5.0 (Windows NT 10.0; Win64; x64) AppleWebKit/537.36 (KHTML, like Gecko) Chrome/119.0.0.0 Safari/537.36" etag="oitsEJ5hZIZE0JGHrZ8A" version="22.1.4" type="device">
  <diagram name="Page-1" id="U6qC_talglsaXLBzSm4i">
    <mxGraphModel dx="882" dy="578" grid="1" gridSize="10" guides="1" tooltips="1" connect="1" arrows="1" fold="1" page="1" pageScale="1" pageWidth="850" pageHeight="1100" math="0" shadow="0">
      <root>
        <mxCell id="0" />
        <mxCell id="1" parent="0" />
        <mxCell id="n9U61YDYeir7N3HVa5Tn-11" style="edgeStyle=orthogonalEdgeStyle;rounded=0;orthogonalLoop=1;jettySize=auto;html=1;exitX=1;exitY=0.5;exitDx=0;exitDy=0;entryX=0;entryY=0.5;entryDx=0;entryDy=0;" edge="1" parent="1" source="n9U61YDYeir7N3HVa5Tn-1" target="n9U61YDYeir7N3HVa5Tn-10">
          <mxGeometry relative="1" as="geometry" />
        </mxCell>
        <mxCell id="n9U61YDYeir7N3HVa5Tn-13" style="edgeStyle=orthogonalEdgeStyle;rounded=0;orthogonalLoop=1;jettySize=auto;html=1;exitX=0.5;exitY=1;exitDx=0;exitDy=0;" edge="1" parent="1" source="n9U61YDYeir7N3HVa5Tn-1" target="n9U61YDYeir7N3HVa5Tn-3">
          <mxGeometry relative="1" as="geometry" />
        </mxCell>
        <mxCell id="n9U61YDYeir7N3HVa5Tn-14" style="edgeStyle=orthogonalEdgeStyle;rounded=0;orthogonalLoop=1;jettySize=auto;html=1;exitX=0.25;exitY=1;exitDx=0;exitDy=0;entryX=0.5;entryY=0;entryDx=0;entryDy=0;" edge="1" parent="1" source="n9U61YDYeir7N3HVa5Tn-1" target="n9U61YDYeir7N3HVa5Tn-2">
          <mxGeometry relative="1" as="geometry" />
        </mxCell>
        <mxCell id="n9U61YDYeir7N3HVa5Tn-15" style="edgeStyle=orthogonalEdgeStyle;rounded=0;orthogonalLoop=1;jettySize=auto;html=1;exitX=0.75;exitY=1;exitDx=0;exitDy=0;entryX=0.5;entryY=0;entryDx=0;entryDy=0;" edge="1" parent="1" source="n9U61YDYeir7N3HVa5Tn-1" target="n9U61YDYeir7N3HVa5Tn-4">
          <mxGeometry relative="1" as="geometry" />
        </mxCell>
        <mxCell id="n9U61YDYeir7N3HVa5Tn-1" value="Queue router" style="rounded=1;whiteSpace=wrap;html=1;" vertex="1" parent="1">
          <mxGeometry x="280" y="480" width="120" height="60" as="geometry" />
        </mxCell>
        <mxCell id="n9U61YDYeir7N3HVa5Tn-17" style="edgeStyle=orthogonalEdgeStyle;rounded=0;orthogonalLoop=1;jettySize=auto;html=1;exitX=0.5;exitY=1;exitDx=0;exitDy=0;entryX=0.25;entryY=0;entryDx=0;entryDy=0;" edge="1" parent="1" source="n9U61YDYeir7N3HVa5Tn-2" target="n9U61YDYeir7N3HVa5Tn-6">
          <mxGeometry relative="1" as="geometry" />
        </mxCell>
        <mxCell id="n9U61YDYeir7N3HVa5Tn-2" value="Queue1" style="rounded=1;whiteSpace=wrap;html=1;" vertex="1" parent="1">
          <mxGeometry x="80" y="600" width="120" height="60" as="geometry" />
        </mxCell>
        <mxCell id="n9U61YDYeir7N3HVa5Tn-16" style="edgeStyle=orthogonalEdgeStyle;rounded=0;orthogonalLoop=1;jettySize=auto;html=1;exitX=0.5;exitY=1;exitDx=0;exitDy=0;entryX=0.5;entryY=0;entryDx=0;entryDy=0;" edge="1" parent="1" source="n9U61YDYeir7N3HVa5Tn-3" target="n9U61YDYeir7N3HVa5Tn-6">
          <mxGeometry relative="1" as="geometry" />
        </mxCell>
        <mxCell id="n9U61YDYeir7N3HVa5Tn-3" value="Queue2" style="rounded=1;whiteSpace=wrap;html=1;" vertex="1" parent="1">
          <mxGeometry x="280" y="600" width="120" height="60" as="geometry" />
        </mxCell>
        <mxCell id="n9U61YDYeir7N3HVa5Tn-18" style="edgeStyle=orthogonalEdgeStyle;rounded=0;orthogonalLoop=1;jettySize=auto;html=1;exitX=0.5;exitY=1;exitDx=0;exitDy=0;entryX=0.75;entryY=0;entryDx=0;entryDy=0;" edge="1" parent="1" source="n9U61YDYeir7N3HVa5Tn-4" target="n9U61YDYeir7N3HVa5Tn-6">
          <mxGeometry relative="1" as="geometry" />
        </mxCell>
        <mxCell id="n9U61YDYeir7N3HVa5Tn-4" value="Queue3" style="rounded=1;whiteSpace=wrap;html=1;" vertex="1" parent="1">
          <mxGeometry x="480" y="600" width="120" height="60" as="geometry" />
        </mxCell>
        <mxCell id="n9U61YDYeir7N3HVa5Tn-20" style="edgeStyle=orthogonalEdgeStyle;rounded=0;orthogonalLoop=1;jettySize=auto;html=1;exitX=0.25;exitY=1;exitDx=0;exitDy=0;entryX=0.5;entryY=0;entryDx=0;entryDy=0;" edge="1" parent="1" source="n9U61YDYeir7N3HVa5Tn-6" target="n9U61YDYeir7N3HVa5Tn-7">
          <mxGeometry relative="1" as="geometry" />
        </mxCell>
        <mxCell id="n9U61YDYeir7N3HVa5Tn-21" style="edgeStyle=orthogonalEdgeStyle;rounded=0;orthogonalLoop=1;jettySize=auto;html=1;exitX=0.75;exitY=1;exitDx=0;exitDy=0;entryX=0.5;entryY=0;entryDx=0;entryDy=0;" edge="1" parent="1" source="n9U61YDYeir7N3HVa5Tn-6" target="n9U61YDYeir7N3HVa5Tn-9">
          <mxGeometry relative="1" as="geometry" />
        </mxCell>
        <mxCell id="n9U61YDYeir7N3HVa5Tn-22" style="edgeStyle=orthogonalEdgeStyle;rounded=0;orthogonalLoop=1;jettySize=auto;html=1;exitX=0.5;exitY=1;exitDx=0;exitDy=0;entryX=0.5;entryY=0;entryDx=0;entryDy=0;" edge="1" parent="1" source="n9U61YDYeir7N3HVa5Tn-6" target="n9U61YDYeir7N3HVa5Tn-8">
          <mxGeometry relative="1" as="geometry" />
        </mxCell>
        <mxCell id="n9U61YDYeir7N3HVa5Tn-6" value="Queue selector" style="rounded=1;whiteSpace=wrap;html=1;" vertex="1" parent="1">
          <mxGeometry x="280" y="720" width="120" height="60" as="geometry" />
        </mxCell>
        <mxCell id="n9U61YDYeir7N3HVa5Tn-7" value="Worker thread1" style="rounded=1;whiteSpace=wrap;html=1;" vertex="1" parent="1">
          <mxGeometry x="80" y="840" width="120" height="60" as="geometry" />
        </mxCell>
        <mxCell id="n9U61YDYeir7N3HVa5Tn-8" value="Worker thread2" style="rounded=1;whiteSpace=wrap;html=1;" vertex="1" parent="1">
          <mxGeometry x="280" y="840" width="120" height="60" as="geometry" />
        </mxCell>
        <mxCell id="n9U61YDYeir7N3HVa5Tn-9" value="Worker thread3" style="rounded=1;whiteSpace=wrap;html=1;" vertex="1" parent="1">
          <mxGeometry x="480" y="840" width="120" height="60" as="geometry" />
        </mxCell>
        <mxCell id="n9U61YDYeir7N3HVa5Tn-10" value="Mapping table" style="rounded=1;whiteSpace=wrap;html=1;" vertex="1" parent="1">
          <mxGeometry x="480" y="480" width="120" height="60" as="geometry" />
        </mxCell>
        <mxCell id="n9U61YDYeir7N3HVa5Tn-45" style="edgeStyle=orthogonalEdgeStyle;rounded=0;orthogonalLoop=1;jettySize=auto;html=1;exitX=0.5;exitY=1;exitDx=0;exitDy=0;entryX=0.5;entryY=0;entryDx=0;entryDy=0;" edge="1" parent="1" source="n9U61YDYeir7N3HVa5Tn-27" target="n9U61YDYeir7N3HVa5Tn-1">
          <mxGeometry relative="1" as="geometry" />
        </mxCell>
        <mxCell id="n9U61YDYeir7N3HVa5Tn-27" value="Queue selector" style="rounded=1;whiteSpace=wrap;html=1;" vertex="1" parent="1">
          <mxGeometry x="280" y="320" width="120" height="60" as="geometry" />
        </mxCell>
        <mxCell id="n9U61YDYeir7N3HVa5Tn-28" value="" style="swimlane;startSize=0;" vertex="1" parent="1">
          <mxGeometry x="40" y="440" width="600" height="480" as="geometry" />
        </mxCell>
        <mxCell id="n9U61YDYeir7N3HVa5Tn-30" value="Politeness" style="text;html=1;strokeColor=none;fillColor=none;align=center;verticalAlign=middle;whiteSpace=wrap;rounded=0;" vertex="1" parent="n9U61YDYeir7N3HVa5Tn-28">
          <mxGeometry x="530" width="70" height="30" as="geometry" />
        </mxCell>
        <mxCell id="n9U61YDYeir7N3HVa5Tn-29" value="" style="swimlane;startSize=0;" vertex="1" parent="1">
          <mxGeometry x="40" y="40" width="600" height="360" as="geometry" />
        </mxCell>
        <mxCell id="n9U61YDYeir7N3HVa5Tn-31" value="Priority" style="text;html=1;strokeColor=none;fillColor=none;align=center;verticalAlign=middle;whiteSpace=wrap;rounded=0;" vertex="1" parent="n9U61YDYeir7N3HVa5Tn-29">
          <mxGeometry x="530" width="70" height="30" as="geometry" />
        </mxCell>
        <mxCell id="n9U61YDYeir7N3HVa5Tn-23" value="Prioritizer" style="rounded=1;whiteSpace=wrap;html=1;" vertex="1" parent="n9U61YDYeir7N3HVa5Tn-29">
          <mxGeometry x="240" y="40" width="120" height="60" as="geometry" />
        </mxCell>
        <mxCell id="n9U61YDYeir7N3HVa5Tn-24" value="Queue1" style="rounded=1;whiteSpace=wrap;html=1;" vertex="1" parent="n9U61YDYeir7N3HVa5Tn-29">
          <mxGeometry x="40" y="160" width="120" height="60" as="geometry" />
        </mxCell>
        <mxCell id="n9U61YDYeir7N3HVa5Tn-33" style="edgeStyle=orthogonalEdgeStyle;rounded=0;orthogonalLoop=1;jettySize=auto;html=1;exitX=0.25;exitY=1;exitDx=0;exitDy=0;" edge="1" parent="n9U61YDYeir7N3HVa5Tn-29" source="n9U61YDYeir7N3HVa5Tn-23" target="n9U61YDYeir7N3HVa5Tn-24">
          <mxGeometry relative="1" as="geometry" />
        </mxCell>
        <mxCell id="n9U61YDYeir7N3HVa5Tn-25" value="Queue2" style="rounded=1;whiteSpace=wrap;html=1;" vertex="1" parent="n9U61YDYeir7N3HVa5Tn-29">
          <mxGeometry x="240" y="160" width="120" height="60" as="geometry" />
        </mxCell>
        <mxCell id="n9U61YDYeir7N3HVa5Tn-35" style="edgeStyle=orthogonalEdgeStyle;rounded=0;orthogonalLoop=1;jettySize=auto;html=1;exitX=0.5;exitY=1;exitDx=0;exitDy=0;entryX=0.5;entryY=0;entryDx=0;entryDy=0;" edge="1" parent="n9U61YDYeir7N3HVa5Tn-29" source="n9U61YDYeir7N3HVa5Tn-23" target="n9U61YDYeir7N3HVa5Tn-25">
          <mxGeometry relative="1" as="geometry" />
        </mxCell>
        <mxCell id="n9U61YDYeir7N3HVa5Tn-26" value="Queue3" style="rounded=1;whiteSpace=wrap;html=1;" vertex="1" parent="n9U61YDYeir7N3HVa5Tn-29">
          <mxGeometry x="440" y="160" width="120" height="60" as="geometry" />
        </mxCell>
        <mxCell id="n9U61YDYeir7N3HVa5Tn-34" style="edgeStyle=orthogonalEdgeStyle;rounded=0;orthogonalLoop=1;jettySize=auto;html=1;exitX=0.75;exitY=1;exitDx=0;exitDy=0;entryX=0.5;entryY=0;entryDx=0;entryDy=0;" edge="1" parent="n9U61YDYeir7N3HVa5Tn-29" source="n9U61YDYeir7N3HVa5Tn-23" target="n9U61YDYeir7N3HVa5Tn-26">
          <mxGeometry relative="1" as="geometry" />
        </mxCell>
        <mxCell id="n9U61YDYeir7N3HVa5Tn-46" value="Output URLs" style="text;html=1;strokeColor=none;fillColor=none;align=center;verticalAlign=middle;whiteSpace=wrap;rounded=0;" vertex="1" parent="1">
          <mxGeometry x="340" y="410" width="100" height="30" as="geometry" />
        </mxCell>
        <mxCell id="n9U61YDYeir7N3HVa5Tn-47" style="edgeStyle=orthogonalEdgeStyle;rounded=0;orthogonalLoop=1;jettySize=auto;html=1;exitX=0.5;exitY=1;exitDx=0;exitDy=0;entryX=0.25;entryY=0;entryDx=0;entryDy=0;" edge="1" parent="1" source="n9U61YDYeir7N3HVa5Tn-24" target="n9U61YDYeir7N3HVa5Tn-27">
          <mxGeometry relative="1" as="geometry" />
        </mxCell>
        <mxCell id="n9U61YDYeir7N3HVa5Tn-48" style="edgeStyle=orthogonalEdgeStyle;rounded=0;orthogonalLoop=1;jettySize=auto;html=1;exitX=0.5;exitY=1;exitDx=0;exitDy=0;entryX=0.75;entryY=0;entryDx=0;entryDy=0;" edge="1" parent="1" source="n9U61YDYeir7N3HVa5Tn-26" target="n9U61YDYeir7N3HVa5Tn-27">
          <mxGeometry relative="1" as="geometry" />
        </mxCell>
        <mxCell id="n9U61YDYeir7N3HVa5Tn-50" style="edgeStyle=orthogonalEdgeStyle;rounded=0;orthogonalLoop=1;jettySize=auto;html=1;exitX=0.5;exitY=1;exitDx=0;exitDy=0;" edge="1" parent="1" source="n9U61YDYeir7N3HVa5Tn-25" target="n9U61YDYeir7N3HVa5Tn-27">
          <mxGeometry relative="1" as="geometry" />
        </mxCell>
      </root>
    </mxGraphModel>
  </diagram>
</mxfile>
